<svg data-name="Laag 1" xmlns="http://www.w3.org/2000/svg" viewBox="0 0 1354.5 1022.4" stroke="#000000" stroke-width="20">
  <path d="M1044.5 299.6s167.6 67.4 115.3 92.3c-52.3 25-109.4 10.1-115.3-92.3ZM703.9 16.7s-18 79.6 26.9 155.4c0 0-222.2-27-446.9 36 0 0-28.3 60.4 5.1 133.6 0 0-195.3 74.5-289 170.8 0 0 219.6 41.1 197.9 258.2 0 0 232.5-33.4 521.5 251.7C808 547 1145.6 354.1 1344.9 571.6c0 0 60.4-133.6-122-231.2 0 0-19.3-93.7-187.5-132.3 0 0-66.8-28.3-100.2-98.9 0 0-10.3 12.9-14.2 51.4-.1 0-161.8-128.5-217.1-143.9Z" fill="#ffffff"/>
</svg>
